name analog
datacolumns 19
datarows 72
range 0.5885 0.624
endheader
time	ground_force_vx	ground_force_vy	ground_force_vz	ground_force_px	ground_force_py	ground_force_pz	l_ground_force_vx	l_ground_force_vy	l_ground_force_vz	l_ground_force_px	l_ground_force_py	l_ground_force_pz	ground_torque_x	ground_torque_y	ground_torque_z	l_ground_torque_x	l_ground_torque_y	l_ground_torque_z
0.5885	-0.0	-0.0	-0.0	1.8799445629119875	2.821735143661499	-736.8798217773438	-0.0	-0.0	-0.0	-0.0	-0.0	-0.0	-0.0	-0.0	-0.0	-0.0	-0.0	-0.0
0.589	-0.0	-0.0	-0.0	2.2235445976257324	3.1347053050994877	-735.88037109375	-0.0	-0.0	-0.0	-0.0	-0.0	-0.0	-0.0	-0.0	-0.0	-0.0	-0.0	-0.0
0.5895	-0.0	-0.0	-0.0	2.349677324295044	3.8106749057769775	-735.2337036132812	-0.0	-0.0	-0.0	-0.0	-0.0	-0.0	-0.0	-0.0	-0.0	-0.0	-0.0	-0.0
0.59	-0.0	-0.0	-0.0	2.869760751724243	3.728466033935547	-733.848388671875	-0.0	-0.0	-0.0	-0.0	-0.0	-0.0	-0.0	-0.0	-0.0	-0.0	-0.0	-0.0
0.5905	-0.0	-0.0	-0.0	3.19710111618042	3.9217376708984375	-733.1137084960938	-0.0	-0.0	-0.0	-0.0	-0.0	-0.0	-0.0	-0.0	-0.0	-0.0	-0.0	-0.0
0.591	-0.0	-0.0	-0.0	3.8436062335968018	3.973747491836548	-731.7007446289062	-0.0	-0.0	-0.0	-0.0	-0.0	-0.0	-0.0	-0.0	-0.0	-0.0	-0.0	-0.0
0.5915	-0.0	-0.0	-0.0	4.252193927764893	4.062839031219482	-731.7002563476562	-0.0	-0.0	-0.0	-0.0	-0.0	-0.0	-0.0	-0.0	-0.0	-0.0	-0.0	-0.0
0.592	-0.0	-0.0	-0.0	4.356567859649658	4.47825813293457	-731.9056396484375	-0.0	-0.0	-0.0	-0.0	-0.0	-0.0	-0.0	-0.0	-0.0	-0.0	-0.0	-0.0
0.5925	-0.0	-0.0	-0.0	4.439003944396973	5.125518321990967	-730.4342651367188	-0.0	-0.0	-0.0	-0.0	-0.0	-0.0	-0.0	-0.0	-0.0	-0.0	-0.0	-0.0
0.593	-0.0	-0.0	-0.0	4.497822284698486	4.7838335037231445	-729.4583129882812	-0.0	-0.0	-0.0	-0.0	-0.0	-0.0	-0.0	-0.0	-0.0	-0.0	-0.0	-0.0
0.5935	-0.0	-0.0	-0.0	4.556019306182861	5.466007232666016	-728.3145751953125	-0.0	-0.0	-0.0	-0.0	-0.0	-0.0	-0.0	-0.0	-0.0	-0.0	-0.0	-0.0
0.594	-0.0	-0.0	-0.0	5.107873916625977	5.287642002105713	-728.6676025390625	-0.0	-0.0	-0.0	-0.0	-0.0	-0.0	-0.0	-0.0	-0.0	-0.0	-0.0	-0.0
0.5945	-0.0	-0.0	-0.0	5.024607181549072	5.74171257019043	-726.1610107421875	-0.0	-0.0	-0.0	-0.0	-0.0	-0.0	-0.0	-0.0	-0.0	-0.0	-0.0	-0.0
0.595	-0.0	-0.0	-0.0	5.766799449920654	5.957417964935303	-723.6437377929688	-0.0	-0.0	-0.0	-0.0	-0.0	-0.0	-0.0	-0.0	-0.0	-0.0	-0.0	-0.0
0.5955	-0.0	-0.0	-0.0	5.953902244567871	6.811347484588623	-721.3983154296875	-0.0	-0.0	-0.0	-0.0	-0.0	-0.0	-0.0	-0.0	-0.0	-0.0	-0.0	-0.0
0.596	-0.0	-0.0	-0.0	5.643564224243164	7.280314445495605	-721.13720703125	-0.0	-0.0	-0.0	-0.0	-0.0	-0.0	-0.0	-0.0	-0.0	-0.0	-0.0	-0.0
0.5965	-0.0	-0.0	-0.0	5.559300422668457	7.740233421325684	-719.05517578125	-0.0	-0.0	-0.0	-0.0	-0.0	-0.0	-0.0	-0.0	-0.0	-0.0	-0.0	-0.0
0.597	-0.0	-0.0	-0.0	5.239884853363037	8.673717498779297	-718.405517578125	-0.0	-0.0	-0.0	-0.0	-0.0	-0.0	-0.0	-0.0	-0.0	-0.0	-0.0	-0.0
0.5975	-0.0	-0.0	-0.0	5.963101387023926	8.899049758911133	-716.4912109375	-0.0	-0.0	-0.0	-0.0	-0.0	-0.0	-0.0	-0.0	-0.0	-0.0	-0.0	-0.0
0.598	-0.0	-0.0	-0.0	6.080239772796631	9.321083068847656	-716.5857543945312	-0.0	-0.0	-0.0	-0.0	-0.0	-0.0	-0.0	-0.0	-0.0	-0.0	-0.0	-0.0
0.5985	-0.0	-0.0	-0.0	6.869209289550781	9.907309532165527	-715.4329223632812	-0.0	-0.0	-0.0	-0.0	-0.0	-0.0	-0.0	-0.0	-0.0	-0.0	-0.0	-0.0
0.599	-0.0	-0.0	-0.0	8.358198165893555	9.828235626220703	-714.333740234375	-0.0	-0.0	-0.0	-0.0	-0.0	-0.0	-0.0	-0.0	-0.0	-0.0	-0.0	-0.0
0.5995	-0.0	-0.0	-0.0	8.958797454833984	10.263700485229492	-712.8665771484375	-0.0	-0.0	-0.0	-0.0	-0.0	-0.0	-0.0	-0.0	-0.0	-0.0	-0.0	-0.0
0.6	-0.0	-0.0	-0.0	10.01572322845459	10.352753639221191	-711.2503662109375	-0.0	-0.0	-0.0	-0.0	-0.0	-0.0	-0.0	-0.0	-0.0	-0.0	-0.0	-0.0
0.6005	-0.0	-0.0	-0.0	10.526840209960938	10.811927795410156	-710.7360229492188	-0.0	-0.0	-0.0	-0.0	-0.0	-0.0	-0.0	-0.0	-0.0	-0.0	-0.0	-0.0
0.601	-0.0	-0.0	-0.0	10.451138496398926	11.433011054992676	-711.7110595703125	-0.0	-0.0	-0.0	-0.0	-0.0	-0.0	-0.0	-0.0	-0.0	-0.0	-0.0	-0.0
0.6015	-0.0	-0.0	-0.0	10.62948226928711	11.765213012695312	-712.6203002929688	-0.0	-0.0	-0.0	-0.0	-0.0	-0.0	-0.0	-0.0	-0.0	-0.0	-0.0	-0.0
0.602	-0.0	-0.0	-0.0	10.256988525390623	12.40249252319336	-712.063720703125	-0.0	-0.0	-0.0	-0.0	-0.0	-0.0	-0.0	-0.0	-0.0	-0.0	-0.0	-0.0
0.6025	-0.0	-0.0	-0.0	10.219305992126465	12.656517028808594	-712.9200439453125	-0.0	-0.0	-0.0	-0.0	-0.0	-0.0	-0.0	-0.0	-0.0	-0.0	-0.0	-0.0
0.603	-0.0	-0.0	-0.0	9.53230094909668	12.682939529418944	-710.689453125	-0.0	-0.0	-0.0	-0.0	-0.0	-0.0	-0.0	-0.0	-0.0	-0.0	-0.0	-0.0
0.6035	-0.0	-0.0	-0.0	9.29105281829834	13.141613960266112	-712.7692260742188	-0.0	-0.0	-0.0	-0.0	-0.0	-0.0	-0.0	-0.0	-0.0	-0.0	-0.0	-0.0
0.604	-0.0	-0.0	-0.0	8.640326499938965	13.612008094787598	-714.4830322265625	-0.0	-0.0	-0.0	-0.0	-0.0	-0.0	-0.0	-0.0	-0.0	-0.0	-0.0	-0.0
0.6045	-0.0	-0.0	-0.0	7.404472351074219	13.853275299072266	-715.79638671875	-0.0	-0.0	-0.0	-0.0	-0.0	-0.0	-0.0	-0.0	-0.0	-0.0	-0.0	-0.0
0.605	-0.0	-0.0	-0.0	6.601577758789063	14.20983600616455	-716.650634765625	-0.0	-0.0	-0.0	-0.0	-0.0	-0.0	-0.0	-0.0	-0.0	-0.0	-0.0	-0.0
0.6055	-0.0	-0.0	-0.0	5.441841125488281	14.451998710632324	-715.895751953125	-0.0	-0.0	-0.0	-0.0	-0.0	-0.0	-0.0	-0.0	-0.0	-0.0	-0.0	-0.0
0.606	-0.0	-0.0	-0.0	4.371315002441406	14.095398902893066	-718.1652221679688	-0.0	-0.0	-0.0	-0.0	-0.0	-0.0	-0.0	-0.0	-0.0	-0.0	-0.0	-0.0
0.6065	-0.0	-0.0	-0.0	3.78508186340332	14.719234466552734	-715.895751953125	-0.0	-0.0	-0.0	-0.0	-0.0	-0.0	-0.0	-0.0	-0.0	-0.0	-0.0	-0.0
0.607	-0.0	-0.0	-0.0	3.708784580230713	14.235515594482422	-717.156982421875	-0.0	-0.0	-0.0	-0.0	-0.0	-0.0	-0.0	-0.0	-0.0	-0.0	-0.0	-0.0
0.6075	-0.0	-0.0	-0.0	3.492295265197754	14.566045761108398	-717.4600830078125	-0.0	-0.0	-0.0	-0.0	-0.0	-0.0	-0.0	-0.0	-0.0	-0.0	-0.0	-0.0
0.608	-0.0	-0.0	-0.0	3.5293309688568115	14.629156112670898	-715.9483032226562	-0.0	-0.0	-0.0	-0.0	-0.0	-0.0	-0.0	-0.0	-0.0	-0.0	-0.0	-0.0
0.6085	-0.0	-0.0	-0.0	3.632675886154175	14.694049835205078	-712.26513671875	-0.0	-0.0	-0.0	-0.0	-0.0	-0.0	-0.0	-0.0	-0.0	-0.0	-0.0	-0.0
0.609	-0.0	-0.0	-0.0	3.542414903640747	14.617385864257812	-711.961669921875	-0.0	-0.0	-0.0	-0.0	-0.0	-0.0	-0.0	-0.0	-0.0	-0.0	-0.0	-0.0
0.6095	-0.0	-0.0	-0.0	4.306748867034912	14.440601348876951	-709.8917236328125	-0.0	-0.0	-0.0	-0.0	-0.0	-0.0	-0.0	-0.0	-0.0	-0.0	-0.0	-0.0
0.61	-0.0	-0.0	-0.0	4.435986042022705	14.13329792022705	-706.1589965820312	-0.0	-0.0	-0.0	-0.0	-0.0	-0.0	-0.0	-0.0	-0.0	-0.0	-0.0	-0.0
0.6105	-0.0	-0.0	-0.0	5.070873737335205	13.726081848144531	-704.8582763671875	4.170316696166992	-3.380941152572632	-21.69625473022461	-0.0	-0.0	-0.0	-0.0	-0.0	-0.0	6813.3349609375	551.3924560546875	1332.838134765625
0.611	-0.0	-0.0	-0.0	5.060770511627197	13.880135536193848	-700.9008178710938	3.979649543762207	-3.671490669250488	-23.39315795898437	-0.0	-0.0	-0.0	-0.0	-0.0	-0.0	7330.26904296875	558.080810546875	1319.8851318359375
0.6115	-0.0	-0.0	-0.0	5.22484016418457	13.954927444458008	-697.5877075195312	3.9278199672698975	-4.176951885223389	-25.83721923828125	-0.0	-0.0	-0.0	-0.0	-0.0	-0.0	7898.19970703125	531.6300659179688	1192.39794921875
0.612	-0.0	-0.0	-0.0	5.634906768798828	13.307034492492676	-693.445068359375	3.383216142654419	-4.327762603759766	-26.58356475830078	-0.0	-0.0	-0.0	-0.0	-0.0	-0.0	8490.974609375	676.2872924804688	1170.4493408203125
0.6125	-0.0	-0.0	-0.0	5.697566032409668	13.497307777404783	-691.173095703125	3.2440080642700195	-4.731247901916504	-28.082836151123047	-0.0	-0.0	-0.0	-0.0	-0.0	-0.0	9117.4462890625	719.2650756835938	937.550537109375
0.613	-0.0	-0.0	-0.0	5.5342559814453125	12.858413696289062	-688.5603637695312	3.193588256835937	-4.907853126525879	-29.62189674377441	-0.0	-0.0	-0.0	-0.0	-0.0	-0.0	9695.4111328125	756.509521484375	907.7929077148438
0.6135	-0.0	-0.0	-0.0	6.027601718902588	13.013038635253906	-685.1224365234375	2.9274559020996094	-4.910149574279785	-33.56581497192383	-0.0	-0.0	-0.0	-0.0	-0.0	-0.0	10574.453125	736.3759155273438	835.443115234375
0.614	-0.0	-0.0	-0.0	5.751856327056885	13.0013427734375	-681.8051147460938	3.752312660217285	-5.788421630859375	-37.60423278808594	-0.0	-0.0	-0.0	-0.0	-0.0	-0.0	11512.595703125	880.4031372070312	1001.7968139648438
0.6145	-0.0	-0.0	-0.0	5.8374738693237305	12.98590087890625	-677.3530883789062	4.864370822906494	-6.75070858001709	-40.74613952636719	-0.0	-0.0	-0.0	-0.0	-0.0	-0.0	12943.3876953125	504.2449951171875	1248.593994140625
0.615	-0.0	-0.0	-0.0	6.077890396118164	12.873559951782228	-674.4200439453125	5.3226470947265625	-6.700699806213379	-45.726837158203125	-0.0	-0.0	-0.0	-0.0	-0.0	-0.0	14453.6396484375	472.71337890625	1375.54248046875
0.6155	-0.0	-0.0	-0.0	6.667792320251465	12.199377059936523	-669.5836181640625	5.577056407928467	-6.980723857879639	-51.022274017333984	-0.0	-0.0	-0.0	-0.0	-0.0	-0.0	15850.3828125	278.5498352050781	1527.9312744140625
0.616	-0.0	-0.0	-0.0	7.795575141906738	11.993743896484377	-665.71728515625	6.055624485015869	-7.227203845977783	-57.1550407409668	-0.0	-0.0	-0.0	-0.0	-0.0	-0.0	17716.767578125	539.1578979492188	1622.3106689453125
0.6165	-0.0	-0.0	-0.0	7.6721038818359375	11.909404754638672	-660.9537353515625	5.789385318756104	-7.407480239868164	-62.08847427368164	-0.0	-0.0	-0.0	-0.0	-0.0	-0.0	19265.83203125	437.0403442382813	1379.6756591796875
0.617	-0.0	-0.0	-0.0	8.001274108886719	11.83797550201416	-656.228515625	5.222421169281006	-8.010309219360352	-67.23434448242188	-0.0	-0.0	-0.0	-0.0	-0.0	-0.0	21085.087890625	272.993896484375	1315.95361328125
0.6175	-0.0	-0.0	-0.0	7.911947250366211	11.87674617767334	-650.138671875	4.956366062164307	-8.06004810333252	-73.0627212524414	-0.0	-0.0	-0.0	-0.0	-0.0	-0.0	22638.9296875	401.4682922363281	976.5662841796876
0.618	-0.0	-0.0	-0.0	8.012184143066406	12.194169044494627	-644.0676879882812	4.790382385253906	-8.014604568481445	-78.55911254882812	-0.0	-0.0	-0.0	-0.0	-0.0	-0.0	24405.7265625	434.0052490234375	816.737060546875
0.6185	-0.0	-0.0	-0.0	7.844698905944824	12.210865020751951	-640.3383178710938	4.756461143493652	-8.329512596130371	-84.34236907958984	-0.0	-0.0	-0.0	-0.0	-0.0	-0.0	26123.251953125	564.7468872070312	750.4300537109375
0.619	-0.0	-0.0	-0.0	7.064730167388916	11.904404640197754	-634.4224853515625	4.53548002243042	-8.60577392578125	-89.31873321533203	-0.0	-0.0	-0.0	-0.0	-0.0	-0.0	28015.4765625	291.5200500488281	720.4869995117188
0.6195	-0.0	-0.0	-0.0	6.261995792388916	12.121734619140623	-630.2963256835938	4.424373149871826	-8.594688415527344	-94.7519302368164	-0.0	-0.0	-0.0	-0.0	-0.0	-0.0	29491.388671875	428.5885925292969	594.244384765625
0.62	-0.0	-0.0	-0.0	5.263420104980469	11.98915958404541	-625.9038696289062	4.208212852478027	-8.771431922912598	-101.18860626220705	-0.0	-0.0	-0.0	-0.0	-0.0	-0.0	31572.69140625	465.640380859375	501.3421325683594
0.6205	-0.0	-0.0	-0.0	4.706570625305176	11.62612533569336	-621.0028076171875	3.991985321044922	-8.73287296295166	-107.5386962890625	-0.0	-0.0	-0.0	-0.0	-0.0	-0.0	33555.4453125	538.916015625	260.2259826660156
0.621	-0.0	-0.0	-0.0	4.510488510131836	11.526328086853027	-616.454345703125	3.8364531993865967	-8.97612190246582	-113.29743194580078	-0.0	-0.0	-0.0	-0.0	-0.0	-0.0	35553.36328125	615.4482421875	128.44699096679688
0.6215	-0.0	-0.0	-0.0	4.182224273681641	11.198450088500977	-611.185546875	3.615343570709229	-8.860052108764648	-119.60587310791016	-0.0	-0.0	-0.0	-0.0	-0.0	-0.0	37350.03125	416.02783203125	-32.98789596557617
0.622	-0.0	-0.0	-0.0	4.4892425537109375	11.07027816772461	-604.3626098632812	3.0442888736724854	-8.754621505737305	-125.9585418701172	-0.0	-0.0	-0.0	-0.0	-0.0	-0.0	39435.26171875	658.611083984375	-369.0496826171875
0.6225	-0.0	-0.0	-0.0	4.948635578155518	10.567205429077148	-597.2998046875	2.384446382522583	-9.245662689208984	-132.0638885498047	-0.0	-0.0	-0.0	-0.0	-0.0	-0.0	41905.87109375	735.6450805664062	-478.87017822265625
0.623	-0.0	-0.0	-0.0	5.840526103973389	10.082186698913574	-590.5899658203125	2.150441646575928	-9.694096565246582	-140.9878692626953	-0.0	-0.0	-0.0	-0.0	-0.0	-0.0	43785.29296875	736.443603515625	-683.2058715820312
0.6235	-0.0	-0.0	-0.0	6.887856960296631	9.833349227905272	-585.6134643554688	1.8913605213165283	-10.386475563049316	-145.76332092285156	-0.0	-0.0	-0.0	-0.0	-0.0	-0.0	45828.3671875	632.5919799804688	-859.140625
0.624	-0.0	-0.0	-0.0	7.365019798278809	9.507831573486328	-577.6799926757812	1.4088356494903564	-11.502800941467283	-152.89898681640625	-0.0	-0.0	-0.0	-0.0	-0.0	-0.0	47590.16796875	828.6249389648438	-925.0284423828124
